#!OML:ASF F:\VICON\USERDATA\INSTALL\rory3\rory3.ASF
:FULLY-SPECIFIED
:DEGREES
97
root -0.6887630879508544 17.492297500358433 14.818647752747232 2.6564466100467903 -3.07388018769126 -1.8566203952219373
lfemur -22.37357684473264 3.5839652974108738 -18.94322055207276
ltibia 91.51454073288679
lfoot 10.089198438019377 -7.42179790447005
ltoes -20.732945970919744
rfemur -10.359423099862195 5.20429602027907 30.358117584663397
rtibia 74.29491770807847
rfoot -2.086236892533947 -8.18359932800566
rtoes -9.02853902392205
lowerback 14.96962554395095 1.0345827773350544 1.3827041761422862
upperback -0.7429407733253698 1.7069167379865098 0.5862820983891321
thorax -9.34441271746278 0.8272253062910415 -0.04245472056408439
lowerneck -19.471108499918913 -4.670044348879075 -1.8354550907784026
upperneck 10.806257972181326 -6.252657388036278 2.2513870367677242
head 6.530724181647024 -2.893099776085618 0.36528533354765774
lclavicle 1.124539100314441e-15 -1.4766016290249607e-15
lhumerus -44.779900243782606 -15.034278773221727 97.86896073432386
lradius 104.43345666062979
lwrist 25.11747659900831
lhand -30.572604062914795 0.05217055972718246
lfingers 7.125019999999998
lthumb -3.87208316773741 29.979544455321108
rclavicle 1.124539100401383e-15 -1.4766016289655973e-15
rhumerus -58.034666569110684 6.4252989238829405 -96.66442651328686
rradius 120.85049563779033
rwrist -13.484009280018405
rhand -19.037471409563622 37.06345489012495
rfingers 7.125019999999998
rthumb 5.650579200648895 7.878326177976287
98
root -0.6921932342595521 17.44122894505506 14.975831785935899 2.5711792285744934 -3.0820460879974094 -1.8930031272360743
lfemur -23.103813347281314 3.847313100092605 -18.878443747007687
ltibia 91.4650071545823
lfoot 10.152956673166507 -6.761497228850647
ltoes -19.951788818985854
rfemur -10.236157531443876 5.389790643404324 30.36162609608788
rtibia 75.70038949170933
rfoot -2.6836733657435468 -8.243530877762169
rtoes -7.8796272591690695
lowerback 15.080571559144806 1.0695240328155293 1.3893134086422745
upperback -0.71910436687813 1.7435767079261149 0.5453569868369175
thorax -9.485992211604533 0.8450276272210725 -0.06740565711245672
lowerneck -19.650718755206096 -4.699961792867748 -1.8513761455459
upperneck 10.649786524326117 -6.291328649871618 2.299562869977865
head 6.475750973851597 -2.905038466727266 0.36178844705805685
lclavicle 1.124539100316188e-15 -1.476601629023922e-15
lhumerus -44.0874277045328 -15.25042348034979 97.8125895760027
lradius 104.85906377014214
lwrist 25.676569488703194
lhand -30.741635002979546 0.2709634297545202
lfingers 7.125019999999998
lthumb -3.856129718322835 30.112087249414245
rclavicle 1.1245391004020736e-15 -1.476601628965352e-15
rhumerus -57.8766143661848 6.347426152291692 -96.65426451362619
rradius 120.68214679865997
rwrist -13.249985031271546
rhand -19.024395280792877 36.31202866073487
rfingers 7.125019999999998
rthumb 5.67746489171765 7.296944143635286
99
root -0.6609862976401738 17.389402149936615 15.197665557541455 2.420620454807392 -2.9846197302747255 -1.7868474026196244
lfemur -23.673037544911057 4.059296130730295 -19.056285573523784
ltibia 91.20698576313862
lfoot 9.48991481705213 -6.726692991118028
ltoes -19.750079026145468
rfemur -10.02316908166052 5.2139455133725505 30.162245481073892
rtibia 77.1653207971393
rfoot -3.4617557894791537 -8.14507621801171
rtoes -5.175135256824662
lowerback 14.98847049241382 1.0726055619866113 1.3579924756736461
upperback -0.6895967518595744 1.7113152055991725 0.3671074383546502
thorax -9.357760916982052 0.8332618556962773 -0.18329366385825474
lowerneck -19.839438439310015 -4.715694717124588 -1.8454029057197863
upperneck 10.491206082327531 -6.311029937909398 2.343808366321757
head 6.423955610761309 -2.9097580611212335 0.35741115466898976
lclavicle 1.1245391003164136e-15 -1.4766016290242302e-15
lhumerus -43.3789674779253 -15.44656503421523 97.77175105238717
lradius 105.37132892691224
lwrist 26.47873274944971
lhand -30.877745963197583 0.36123827176627116
lfingers 7.125019999999998
lthumb -4.102367234353468 30.152557310457702
rclavicle 1.1245391004012972e-15 -1.4766016289664227e-15
rhumerus -57.66347915102844 6.328165113178399 -96.64531060656799
rradius 120.49905126295948
rwrist -12.922179460530117
rhand -19.02281363572842 35.57120277984298
rfingers 7.125019999999998
rthumb 5.684705992400621 6.668312170837956
100
root -0.685904285124001 17.336187006913015 15.449639298652471 2.4086745297532817 -2.9207813249133636 -1.92707518610298
lfemur -24.4222836058537 4.305674713376583 -18.85619233311686
ltibia 90.81236913490781
lfoot 8.64651385788186 -7.016063962656315
ltoes -19.3148065815799
rfemur -10.102970078354659 5.430453674646206 30.273372607255027
rtibia 78.67673234836346
rfoot -3.7141579977143064 -8.433127592692339
rtoes -2.6205549429300183
lowerback 15.21768686495213 1.0899343752555442 1.3880185853282057
upperback -0.7159026065049864 1.7765632166126155 0.40984056228788845
thorax -9.659678788342083 0.844180666546463 -0.18237650892593493
lowerneck -19.878539496962507 -4.715841207608143 -1.8544669642963119
upperneck 10.29446530675855 -6.3074289000608665 2.399640776748194
head 6.3621635127753375 -2.9036844220002402 0.35784708424456796
lclavicle 1.1245391003205661e-15 -1.4766016290215925e-15
lhumerus -42.564727103890824 -15.647233361975083 97.71975003642618
lradius 105.94997383524645
lwrist 27.075685210177586
lhand -31.110164968856772 0.44582548516445464
lfingers 7.125019999999998
lthumb -4.235057666388554 30.23533795885595
rclavicle 1.124539100404366e-15 -1.4766016289645906e-15
rhumerus -57.43233026358835 6.344120495325342 -96.65478109077596
rradius 120.31217201191632
rwrist -12.757161858294806
rhand -18.99419687914442 34.9350301618938
rfingers 7.125019999999998
rthumb 5.760745420745408 6.267812124107849
101
root -0.7048065658181307 17.323429255750288 15.585119722633426 2.4527082867607177 -2.9207032676289124 -2.0722353588172058
lfemur -25.139483465773395 4.553323515154398 -18.68671883914228
ltibia 90.27862698144575
lfoot 8.559136996791404 -7.043653231034956
ltoes -16.994214035006003
rfemur -10.172719506715023 5.603616328066501 30.430114072979357
rtibia 79.99334131107078
rfoot -3.8428717081611077 -8.873678644491962
rtoes -1.281270931446215
lowerback 15.38192292230966 1.1145508104794848 1.467724023670076
upperback -0.7019470514589519 1.830244548200063 0.4786983203549521
thorax -9.879577539202252 0.8638223983216399 -0.19471739719681858
lowerneck -19.983696049589355 -4.699815072094615 -1.887313235764163
upperneck 10.166880121000784 -6.273420874251759 2.4601974008788217
head 6.333579865915817 -2.8799677940640094 0.36623888478230476
lclavicle 1.1245391003264262e-15 -1.4766016290176032e-15
lhumerus -41.67821862666526 -15.802496727478756 97.68060729091813
lradius 106.65234326159762
lwrist 27.403136573796925
lhand -31.05907473681379 0.7309733317434628
lfingers 7.125019999999998
lthumb -4.346116824218898 30.22096800817072
rclavicle 1.1245391004047463e-15 -1.4766016289646395e-15
rhumerus -57.21232276378558 6.379604583008846 -96.70644507172416
rradius 120.14170119642216
rwrist -12.643064950102328
rhand -18.937020193707255 34.417568088167975
rfingers 7.125019999999998
rthumb 5.82155278626632 5.8477082198225405
102
root -0.7234576525429135 17.28650521163011 15.722374386183322 2.3947425696013287 -3.098964819455098 -2.1645062324910187
lfemur -25.716895791346545 4.89539346954821 -18.582921227040966
ltibia 89.62163170699796
lfoot 7.110270380520422 -7.921773086329245
ltoes -16.005024787626724
rfemur -10.333956982491298 5.8633383822795295 30.486863400403898
rtibia 81.40317253111705
rfoot -3.8742838395610577 -9.291826716904989
rtoes -1.237210033445999
lowerback 15.567803864878941 1.165402419497866 1.4750027414742257
upperback -0.6237591268921974 1.8858147520282529 0.5102605752613286
thorax -9.95374897972868 0.8895340951194832 -0.18600693225800413
lowerneck -20.21673052721664 -4.675859027381827 -1.9095018349195785
upperneck 10.122174459329274 -6.244525660450996 2.521250048392784
head 6.362228549016434 -2.855042818216322 0.3712006225328372
lclavicle 1.1245391003278292e-15 -1.476601629016891e-15
lhumerus -40.84028651228391 -15.904294217881269 97.60297816109306
lradius 107.50074116383047
lwrist 27.37090093873798
lhand -30.975833814519948 0.9150289997748494
lfingers 7.125019999999998
lthumb -4.42259364484074 30.317940452306647
rclavicle 1.1245391004083e-15 -1.4766016289623794e-15
rhumerus -56.979759779748804 6.444885602055401 -96.78666460577088
rradius 119.96549822231101
rwrist -12.604616315288212
rhand -18.864218865902174 34.017066601258165
rfingers 7.125019999999998
rthumb 5.897088417255403 5.54841451057964
103
root -0.7384516168805295 17.25449771614085 15.860532921669776 2.3561262403097816 -3.30664279665365 -2.2555119911700894
lfemur -26.266455931626773 5.249312310520325 -18.470133166890538
ltibia 88.85570238444296
lfoot 6.836854170720908 -8.63116903914367
ltoes -12.64961632218932
rfemur -10.570016208740181 6.092428394961728 30.53523094953659
rtibia 82.77480088809565
rfoot -3.756851232095858 -9.663210452448363
rtoes 0.7213207545986864
lowerback 15.737686966086622 1.2096105794447918 1.4819985885768847
upperback -0.5529187676313452 1.9460796469518202 0.5386442713253045
thorax -10.032769900981934 0.9194960650365243 -0.1765344818694169
lowerneck -20.447372480942136 -4.634887846051484 -1.9248439733408307
upperneck 10.099538444417783 -6.185090669224626 2.5670206356635723
head 6.416552731495251 -2.8159433015693915 0.37319488768017023
lclavicle 1.1245391003321062e-15 -1.476601629013854e-15
lhumerus -40.20944166794865 -15.964235220880216 97.48642802894325
lradius 108.48643332500484
lwrist 27.59141854168872
lhand -31.243928007930062 0.7371140416106384
lfingers 7.125019999999998
lthumb -4.223974392680548 30.60403500608624
rclavicle 1.1245391004086724e-15 -1.4766016289622037e-15
rhumerus -56.733171731371826 6.541033643020617 -96.8798945930922
rradius 119.79558470706965
rwrist -12.285039631736309
rhand -18.838236106880167 33.81324743939321
rfingers 7.125019999999998
rthumb 5.8805006749637325 5.308552670725659
